<svg xmlns="http://www.w3.org/2000/svg" viewBox="0 0 800 800" width="800" height="800" role="img" aria-label="Bizzing Bee">
  <title>Bizzing Bee</title>
  <defs>
    <radialGradient id="bgg" cx="50%" cy="32%" r="80%">
      <stop offset="0" stop-color="#4E38A2"/>
      <stop offset="52%" stop-color="#33257A"/>
      <stop offset="100%" stop-color="#1C1440"/>
    </radialGradient>
    <radialGradient id="glow" cx="50%" cy="50%" r="50%">
      <stop offset="0" stop-color="#FFC23D" stop-opacity=".36"/>
      <stop offset="62%" stop-color="#FFC23D" stop-opacity=".10"/>
      <stop offset="100%" stop-color="#FFC23D" stop-opacity="0"/>
    </radialGradient>
    <pattern id="hex" patternUnits="userSpaceOnUse" width="51.96" height="90">
      <g fill="none" stroke="#FFD873" stroke-opacity=".13" stroke-width="2.4">
        <path d="M0,-30 L25.98,-15 L25.98,15 L0,30 L-25.98,15 L-25.98,-15 Z"/>
        <path d="M51.96,-30 L77.94,-15 L77.94,15 L51.96,30 L25.98,15 L25.98,-15 Z"/>
        <path d="M25.98,15 L51.96,30 L51.96,60 L25.98,75 L0,60 L0,30 Z"/>
        <path d="M0,60 L25.98,75 L25.98,105 L0,120 L-25.98,105 L-25.98,75 Z"/>
        <path d="M51.96,60 L77.94,75 L77.94,105 L51.96,120 L25.98,105 L25.98,75 Z"/>
      </g>
    </pattern>
  </defs>
  <rect width="800" height="800" fill="url(#bgg)"/>
  <rect width="800" height="800" fill="url(#hex)"/>
  <circle cx="400" cy="400" r="320" fill="url(#glow)"/>
<svg x="151.0" y="120.0" viewBox="0 0 240 270" width="498" height="560" aria-hidden="true" focusable="false" style="display:block;overflow:visible"><ellipse cx="58" cy="106" rx="30" ry="50" fill="#EDE7FF" stroke="#C4B4FF" stroke-width="3" opacity="0.92" transform="rotate(-26 58 106)"/><ellipse cx="182" cy="106" rx="30" ry="50" fill="#EDE7FF" stroke="#C4B4FF" stroke-width="3" opacity="0.92" transform="rotate(26 182 106)"/><path d="M104,84 Q88,48 84,28" fill="none" stroke="#3A2A8C" stroke-width="6" stroke-linecap="round"/><path d="M136,84 Q152,48 156,28" fill="none" stroke="#3A2A8C" stroke-width="6" stroke-linecap="round"/><path d="M84.0,13.0L86.6,20.4L94.5,20.6L88.3,25.4L90.5,32.9L84.0,28.5L77.5,32.9L79.7,25.4L73.5,20.6L81.4,20.4Z" fill="#FFC83D"/><path d="M156.0,13.0L158.6,20.4L166.5,20.6L160.3,25.4L162.5,32.9L156.0,28.5L149.5,32.9L151.7,25.4L145.5,20.6L153.4,20.4Z" fill="#FFC83D"/><ellipse cx="32" cy="196" rx="13" ry="20" fill="#FFC23D" transform="rotate(22 32 196)"/><ellipse cx="208" cy="196" rx="13" ry="20" fill="#FFC23D" transform="rotate(-22 208 196)"/><ellipse cx="120" cy="172" rx="88" ry="96" fill="#FFC23D"/><ellipse cx="98" cy="118" rx="42" ry="30" fill="#FFD86E" opacity="0.5"/><defs><clipPath id="bc10"><ellipse cx="120" cy="172" rx="88" ry="96"/></clipPath></defs><g clip-path="url(#bc10)"><rect x="28" y="214" width="184" height="24" fill="#3A2A8C"/><rect x="28" y="246" width="184" height="24" fill="#3A2A8C"/></g><g transform="translate(0,-18)"><ellipse cx="62" cy="184" rx="15" ry="9" fill="#FF7FBE" opacity="0.85"/><ellipse cx="178" cy="184" rx="15" ry="9" fill="#FF7FBE" opacity="0.85"/><circle cx="92" cy="150" r="27" fill="#FFFFFF"/><circle cx="94" cy="152" r="13" fill="#2B1B5E"/><circle cx="89.45" cy="146.8" r="4.16" fill="#FFFFFF"/><circle cx="152" cy="150" r="27" fill="#FFFFFF"/><circle cx="154" cy="152" r="13" fill="#2B1B5E"/><circle cx="149.45" cy="146.8" r="4.16" fill="#FFFFFF"/><path d="M96,196 Q120,224 150,196" fill="none" stroke="#3A1E5C" stroke-width="9" stroke-linecap="round"/></g></svg>
</svg>
