<svg viewBox="0 0 240 270" width="100%" height="100%" style="display:block;overflow:visible" xmlns="http://www.w3.org/2000/svg"><ellipse cx="58" cy="106" rx="30" ry="50" fill="#EDE7FF" stroke="#C4B4FF" stroke-width="3" opacity=".92" transform="rotate(-26 58 106)"></ellipse><ellipse cx="182" cy="106" rx="30" ry="50" fill="#EDE7FF" stroke="#C4B4FF" stroke-width="3" opacity=".92" transform="rotate(26 182 106)"></ellipse><path d="M104,84 Q88,48 84,28" fill="none" stroke="#3A2A8C" stroke-width="6" stroke-linecap="round"></path><path d="M136,84 Q152,48 156,28" fill="none" stroke="#3A2A8C" stroke-width="6" stroke-linecap="round"></path><path d="M84.0,13.0L86.6,20.4L94.5,20.6L88.3,25.4L90.5,32.9L84.0,28.5L77.5,32.9L79.7,25.4L73.5,20.6L81.4,20.4Z" fill="#FFC83D"></path><path d="M156.0,13.0L158.6,20.4L166.5,20.6L160.3,25.4L162.5,32.9L156.0,28.5L149.5,32.9L151.7,25.4L145.5,20.6L153.4,20.4Z" fill="#FFC83D"></path><ellipse cx="32" cy="196" rx="13" ry="20" fill="#FFC23D" transform="rotate(22 32 196)"></ellipse><ellipse cx="208" cy="196" rx="13" ry="20" fill="#FFC23D" transform="rotate(-22 208 196)"></ellipse><ellipse cx="120" cy="172" rx="88" ry="96" fill="#FFC23D"></ellipse><ellipse cx="98" cy="118" rx="42" ry="30" fill="#FFD86E" opacity=".5"></ellipse><defs><clipPath id="bclip"><ellipse cx="120" cy="172" rx="88" ry="96"></ellipse></clipPath></defs><g clip-path="url(#bclip)"><rect x="28" y="214" width="184" height="24" fill="#3A2A8C"></rect><rect x="28" y="246" width="184" height="24" fill="#3A2A8C"></rect></g><g transform="translate(0,-18)"><ellipse cx="62" cy="184" rx="15" ry="9" fill="#FF7FBE" opacity=".85"></ellipse><ellipse cx="178" cy="184" rx="15" ry="9" fill="#FF7FBE" opacity=".85"></ellipse><circle cx="92" cy="150" r="27" fill="#FFFFFF"></circle><circle cx="94" cy="152" r="13" fill="#2B1B5E"></circle><circle cx="89.45" cy="146.8" r="4.16" fill="#FFFFFF"></circle><circle cx="152" cy="150" r="27" fill="#FFFFFF"></circle><circle cx="154" cy="152" r="13" fill="#2B1B5E"></circle><circle cx="149.45" cy="146.8" r="4.16" fill="#FFFFFF"></circle><path d="M96,196 Q120,224 150,196" fill="none" stroke="#3A1E5C" stroke-width="9" stroke-linecap="round"></path></g></svg>